<svg width="183" height="33" viewBox="0 0 183 33" fill="none" xmlns="http://www.w3.org/2000/svg">
<path d="M70.2349 0.0998535H79.6006V2.67792H73.1483V3.942H76.2757C78.5801 3.942 80.2755 5.38904 80.2755 7.65109C80.2755 9.91313 78.5801 11.3768 76.2757 11.3768H70.2349V0.0998535ZM73.1483 6.66976V8.63242H76.2757C76.9341 8.63242 77.3621 8.29976 77.3621 7.63445C77.3621 6.98578 76.9341 6.66976 76.2757 6.66976H73.1483Z" fill="black"/>
<path d="M85.5262 7.78415V11.3768H82.6128V0.0998535H88.6536C90.958 0.0998535 92.6534 1.59679 92.6534 3.942C92.6534 6.28721 90.958 7.80078 88.6536 7.80078H85.5262V7.78415ZM85.5262 2.84424V5.05639H88.6536C89.312 5.05639 89.74 4.65721 89.74 3.942C89.74 3.24343 89.312 2.84424 88.6536 2.84424H85.5262Z" fill="black"/>
<path d="M97.8382 0.0998535H101.295L105.871 10.7448V11.3934H102.842L102.101 9.54721H97.0152L96.2745 11.3934H93.3281V10.7448L97.8382 0.0998535ZM98.0522 6.96915H101.081L99.6817 3.49292H99.4183L98.0522 6.96915Z" fill="black"/>
<path d="M119.236 4.57404H118.989L116.026 11.3768H113.656L110.66 4.57404H110.413V11.3768H107.5V0.0998535H111.566L114.693 7.21864H114.989L118.133 0.0998535H122.149V11.3934H119.236V4.57404Z" fill="black"/>
<path d="M128.553 11.3768H125.08V0.0998535H127.993V7.71762H128.108L132.602 0.0998535H136.075V11.3934H133.161V3.75904H133.03L128.553 11.3768Z" fill="black"/>
<path d="M69.0331 20.9407H79.5181V23.5187H75.7323V32.2343H72.8024V23.5187H69.0166V20.9407H69.0331Z" fill="black"/>
<path d="M81.23 20.9407H90.4311V23.5187H84.1599V25.0822H90.1184V27.6603H84.1599V29.6728H90.4641V32.2509H81.23V20.9407Z" fill="black"/>
<path d="M96.1263 28.625V32.2177H93.2129V20.9241H99.2537C101.558 20.9241 103.254 22.421 103.254 24.7662C103.254 27.1114 101.558 28.625 99.2537 28.625H96.1263ZM96.1263 23.6851V25.8972H99.2537C99.9121 25.8972 100.34 25.4981 100.34 24.7829C100.34 24.0843 99.9121 23.6851 99.2537 23.6851H96.1263Z" fill="black"/>
<path d="M112.998 27.7934H108.159V32.2177H105.245V20.9241H108.159V25.0323H112.998V20.9241H115.911V32.2177H112.998V27.7934Z" fill="black"/>
<path d="M118.166 26.5125C118.166 22.9032 120.783 20.6079 124.339 20.6079C127.877 20.6079 130.511 22.9032 130.511 26.5125H127.532C127.532 24.5332 126.264 23.3523 124.339 23.3523C122.413 23.3523 121.145 24.5332 121.145 26.5125C121.145 28.5084 122.413 29.6894 124.339 29.6894C126.264 29.6894 127.532 28.5084 127.532 26.5125H130.511C130.511 30.1218 127.877 32.4337 124.339 32.4337C120.767 32.4337 118.166 30.1218 118.166 26.5125Z" fill="black"/>
<path d="M140.075 23.6851H135.663V32.2343H132.733V20.9407H142.988V32.2343H140.075V23.6851Z" fill="black"/>
<path d="M145.227 26.5125C145.227 22.9032 147.844 20.6079 151.399 20.6079C154.938 20.6079 157.572 22.9032 157.572 26.5125H154.592C154.592 24.5332 153.325 23.3523 151.399 23.3523C149.473 23.3523 148.206 24.5332 148.206 26.5125C148.206 28.5084 149.473 29.6894 151.399 29.6894C153.325 29.6894 154.592 28.5084 154.592 26.5125H157.572C157.572 30.1218 154.938 32.4337 151.399 32.4337C147.844 32.4337 145.227 30.1218 145.227 26.5125Z" fill="black"/>
<path d="M160.353 20.9407H169.62V32.2343H166.707V23.6851H163.184L163.003 28.5584C162.921 30.6043 162.098 32.3507 160.205 32.3507C159.678 32.3507 159.201 32.3174 158.625 32.2343V29.3568C158.74 29.3734 159.053 29.3901 159.185 29.3901C159.695 29.3901 160.041 29.0574 160.073 28.3755L160.353 20.9407Z" fill="black"/>
<path d="M182.509 32.2177H179.595V28.625H177.357L175.003 32.2177H171.875V31.569L174.279 28.1427C172.781 27.6437 171.81 26.3962 171.81 24.6498C171.81 22.3711 173.505 20.9241 175.809 20.9241H182.509V32.2177ZM175.892 23.6851C175.233 23.6851 174.805 24.0843 174.805 24.7995C174.805 25.4981 175.233 25.8972 175.892 25.8972H179.579V23.6851H175.892Z" fill="black"/>
<path d="M6.13959 19.2274C6.13959 14.8862 9.62911 11.3601 13.9252 11.3601C18.2212 11.3601 21.7108 14.8862 21.7108 19.2274V32.151H27.8503V31.8349V20.3251V14.1211C27.8503 9.78001 31.3399 6.25389 35.6359 6.25389C39.932 6.25389 43.4215 9.78001 43.4215 14.1211V32.151H49.5611V14.0712C49.5611 6.30378 43.3228 0 35.6359 0C29.6116 0 24.4925 3.85878 22.5502 9.2644C20.18 7.36828 17.1843 6.23725 13.9252 6.23725C6.23835 6.23725 0 12.541 0 20.3085V31.8183C0 31.9181 0.0164601 32.0345 0.0164601 32.1343H6.13959V19.2274Z" fill="black"/>
</svg>
